<svg width="450" height="206" viewBox="0 0 450 206" fill="none" xmlns="http://www.w3.org/2000/svg">
<g clip-path="url(#clip0_64_12010)">
<path d="M27.6435 204.86C27.5368 204.86 27.4135 204.853 27.2735 204.84C27.1402 204.833 27.0035 204.813 26.8635 204.78V204.09C26.9902 204.117 27.1068 204.137 27.2135 204.15C27.3268 204.17 27.4268 204.18 27.5135 204.18C27.8202 204.18 28.0502 204.083 28.2035 203.89C28.3568 203.703 28.4335 203.403 28.4335 202.99V195.95H29.2635V203C29.2635 203.4 29.2035 203.74 29.0835 204.02C28.9702 204.3 28.7935 204.51 28.5535 204.65C28.3202 204.79 28.0168 204.86 27.6435 204.86ZM32.8445 203.09C32.3979 203.09 32.0079 202.987 31.6745 202.78C31.3412 202.567 31.0812 202.267 30.8945 201.88C30.7145 201.493 30.6245 201.03 30.6245 200.49C30.6245 199.943 30.7145 199.477 30.8945 199.09C31.0812 198.703 31.3412 198.407 31.6745 198.2C32.0079 197.993 32.3979 197.89 32.8445 197.89C33.2979 197.89 33.6879 198.007 34.0145 198.24C34.3479 198.467 34.5679 198.777 34.6745 199.17H34.5545L34.6645 197.98H35.4445C35.4245 198.173 35.4045 198.37 35.3845 198.57C35.3712 198.763 35.3645 198.953 35.3645 199.14V203H34.5545V201.82H34.6645C34.5579 202.213 34.3379 202.523 34.0045 202.75C33.6712 202.977 33.2845 203.09 32.8445 203.09ZM33.0045 202.43C33.4845 202.43 33.8645 202.267 34.1445 201.94C34.4245 201.607 34.5645 201.123 34.5645 200.49C34.5645 199.85 34.4245 199.367 34.1445 199.04C33.8645 198.707 33.4845 198.54 33.0045 198.54C32.5312 198.54 32.1512 198.707 31.8645 199.04C31.5845 199.367 31.4445 199.85 31.4445 200.49C31.4445 201.123 31.5845 201.607 31.8645 201.94C32.1512 202.267 32.5312 202.43 33.0045 202.43ZM36.9306 203V199.14C36.9306 198.953 36.9206 198.763 36.9006 198.57C36.8873 198.37 36.8706 198.173 36.8506 197.98H37.6306L37.7306 199.08H37.6106C37.7573 198.693 37.9906 198.4 38.3106 198.2C38.6373 197.993 39.014 197.89 39.4406 197.89C40.034 197.89 40.4806 198.05 40.7806 198.37C41.0873 198.683 41.2406 199.18 41.2406 199.86V203H40.4306V199.91C40.4306 199.437 40.334 199.093 40.1406 198.88C39.954 198.66 39.6606 198.55 39.2606 198.55C38.794 198.55 38.424 198.693 38.1506 198.98C37.8773 199.267 37.7406 199.65 37.7406 200.13V203H36.9306Z" fill="black" fill-opacity="0.87"/>
<path d="M61.9239 203V195.95H66.3239V196.63H62.7539V199.1H66.1039V199.78H62.7539V203H61.9239ZM69.4935 203.09C68.7069 203.09 68.0869 202.863 67.6335 202.41C67.1802 201.95 66.9535 201.313 66.9535 200.5C66.9535 199.973 67.0535 199.517 67.2535 199.13C67.4535 198.737 67.7335 198.433 68.0935 198.22C68.4535 198 68.8669 197.89 69.3335 197.89C69.7935 197.89 70.1802 197.987 70.4935 198.18C70.8069 198.373 71.0469 198.65 71.2135 199.01C71.3802 199.363 71.4635 199.783 71.4635 200.27V200.57H67.5735V200.06H70.9335L70.7635 200.19C70.7635 199.657 70.6435 199.24 70.4035 198.94C70.1635 198.64 69.8069 198.49 69.3335 198.49C68.8335 198.49 68.4435 198.667 68.1635 199.02C67.8835 199.367 67.7435 199.837 67.7435 200.43V200.52C67.7435 201.147 67.8969 201.623 68.2035 201.95C68.5169 202.27 68.9535 202.43 69.5135 202.43C69.8135 202.43 70.0935 202.387 70.3535 202.3C70.6202 202.207 70.8735 202.057 71.1135 201.85L71.3935 202.42C71.1735 202.633 70.8935 202.8 70.5535 202.92C70.2202 203.033 69.8669 203.09 69.4935 203.09ZM75.223 203.09C74.7697 203.09 74.3797 202.977 74.053 202.75C73.7263 202.517 73.5063 202.2 73.393 201.8H73.503V203H72.703V195.64H73.513V199.15H73.393C73.5063 198.763 73.7263 198.457 74.053 198.23C74.3797 198.003 74.7697 197.89 75.223 197.89C75.6763 197.89 76.0663 197.997 76.393 198.21C76.7263 198.417 76.983 198.713 77.163 199.1C77.3497 199.487 77.443 199.95 77.443 200.49C77.443 201.03 77.3497 201.493 77.163 201.88C76.9763 202.267 76.7163 202.567 76.383 202.78C76.0563 202.987 75.6697 203.09 75.223 203.09ZM75.053 202.43C75.5263 202.43 75.9063 202.267 76.193 201.94C76.4797 201.613 76.623 201.13 76.623 200.49C76.623 199.85 76.4797 199.367 76.193 199.04C75.9063 198.707 75.5263 198.54 75.053 198.54C74.5797 198.54 74.1997 198.707 73.913 199.04C73.633 199.367 73.493 199.85 73.493 200.49C73.493 201.123 73.633 201.607 73.913 201.94C74.1997 202.267 74.5797 202.43 75.053 202.43Z" fill="black" fill-opacity="0.87"/>
<path d="M98.4953 203V195.95H99.2153L102.045 202.34H101.755L104.585 195.95H105.305V203H104.545V197.02H104.845L102.175 203H101.625L98.9453 197.02H99.2453V203H98.4953ZM108.889 203.09C108.443 203.09 108.053 202.987 107.719 202.78C107.386 202.567 107.126 202.267 106.939 201.88C106.759 201.493 106.669 201.03 106.669 200.49C106.669 199.943 106.759 199.477 106.939 199.09C107.126 198.703 107.386 198.407 107.719 198.2C108.053 197.993 108.443 197.89 108.889 197.89C109.343 197.89 109.733 198.007 110.059 198.24C110.393 198.467 110.613 198.777 110.719 199.17H110.599L110.709 197.98H111.489C111.469 198.173 111.449 198.37 111.429 198.57C111.416 198.763 111.409 198.953 111.409 199.14V203H110.599V201.82H110.709C110.603 202.213 110.383 202.523 110.049 202.75C109.716 202.977 109.329 203.09 108.889 203.09ZM109.049 202.43C109.529 202.43 109.909 202.267 110.189 201.94C110.469 201.607 110.609 201.123 110.609 200.49C110.609 199.85 110.469 199.367 110.189 199.04C109.909 198.707 109.529 198.54 109.049 198.54C108.576 198.54 108.196 198.707 107.909 199.04C107.629 199.367 107.489 199.85 107.489 200.49C107.489 201.123 107.629 201.607 107.909 201.94C108.196 202.267 108.576 202.43 109.049 202.43ZM112.955 203V199.19C112.955 198.99 112.949 198.787 112.935 198.58C112.929 198.373 112.915 198.173 112.895 197.98H113.675L113.775 199.2L113.635 199.21C113.702 198.91 113.819 198.663 113.985 198.47C114.152 198.277 114.349 198.133 114.575 198.04C114.802 197.94 115.039 197.89 115.285 197.89C115.385 197.89 115.472 197.893 115.545 197.9C115.625 197.907 115.699 197.923 115.765 197.95L115.755 198.67C115.655 198.637 115.562 198.617 115.475 198.61C115.395 198.597 115.302 198.59 115.195 198.59C114.902 198.59 114.645 198.66 114.425 198.8C114.212 198.94 114.049 199.12 113.935 199.34C113.829 199.56 113.775 199.793 113.775 200.04V203H112.955Z" fill="black" fill-opacity="0.87"/>
<path d="M134.925 203L138.035 195.95H138.755L141.915 203H141.055L140.175 200.99L140.545 201.2H136.235L136.635 200.99L135.775 203H134.925ZM138.385 196.9L136.765 200.7L136.525 200.52H140.245L140.065 200.7L138.405 196.9H138.385ZM142.888 205.16V199.14C142.888 198.953 142.878 198.763 142.858 198.57C142.845 198.37 142.828 198.173 142.808 197.98H143.588L143.698 199.17H143.578C143.685 198.777 143.902 198.467 144.228 198.24C144.555 198.007 144.945 197.89 145.398 197.89C145.852 197.89 146.242 197.993 146.568 198.2C146.902 198.407 147.162 198.703 147.348 199.09C147.535 199.477 147.628 199.943 147.628 200.49C147.628 201.03 147.535 201.493 147.348 201.88C147.168 202.267 146.912 202.567 146.578 202.78C146.245 202.987 145.852 203.09 145.398 203.09C144.952 203.09 144.565 202.977 144.238 202.75C143.912 202.523 143.695 202.213 143.588 201.82H143.698V205.16H142.888ZM145.238 202.43C145.718 202.43 146.098 202.267 146.378 201.94C146.665 201.607 146.808 201.123 146.808 200.49C146.808 199.85 146.665 199.367 146.378 199.04C146.098 198.707 145.718 198.54 145.238 198.54C144.765 198.54 144.385 198.707 144.098 199.04C143.818 199.367 143.678 199.85 143.678 200.49C143.678 201.123 143.818 201.607 144.098 201.94C144.385 202.267 144.765 202.43 145.238 202.43ZM148.864 203V199.19C148.864 198.99 148.858 198.787 148.844 198.58C148.838 198.373 148.824 198.173 148.804 197.98H149.584L149.684 199.2L149.544 199.21C149.611 198.91 149.728 198.663 149.894 198.47C150.061 198.277 150.258 198.133 150.484 198.04C150.711 197.94 150.948 197.89 151.194 197.89C151.294 197.89 151.381 197.893 151.454 197.9C151.534 197.907 151.608 197.923 151.674 197.95L151.664 198.67C151.564 198.637 151.471 198.617 151.384 198.61C151.304 198.597 151.211 198.59 151.104 198.59C150.811 198.59 150.554 198.66 150.334 198.8C150.121 198.94 149.958 199.12 149.844 199.34C149.738 199.56 149.684 199.793 149.684 200.04V203H148.864Z" fill="black" fill-opacity="0.87"/>
<path d="M171.683 203V195.95H172.403L175.233 202.34H174.943L177.773 195.95H178.493V203H177.733V197.02H178.033L175.363 203H174.813L172.133 197.02H172.433V203H171.683ZM182.077 203.09C181.63 203.09 181.24 202.987 180.907 202.78C180.573 202.567 180.313 202.267 180.127 201.88C179.947 201.493 179.857 201.03 179.857 200.49C179.857 199.943 179.947 199.477 180.127 199.09C180.313 198.703 180.573 198.407 180.907 198.2C181.24 197.993 181.63 197.89 182.077 197.89C182.53 197.89 182.92 198.007 183.247 198.24C183.58 198.467 183.8 198.777 183.907 199.17H183.787L183.897 197.98H184.677C184.657 198.173 184.637 198.37 184.617 198.57C184.603 198.763 184.597 198.953 184.597 199.14V203H183.787V201.82H183.897C183.79 202.213 183.57 202.523 183.237 202.75C182.903 202.977 182.517 203.09 182.077 203.09ZM182.237 202.43C182.717 202.43 183.097 202.267 183.377 201.94C183.657 201.607 183.797 201.123 183.797 200.49C183.797 199.85 183.657 199.367 183.377 199.04C183.097 198.707 182.717 198.54 182.237 198.54C181.763 198.54 181.383 198.707 181.097 199.04C180.817 199.367 180.677 199.85 180.677 200.49C180.677 201.123 180.817 201.607 181.097 201.94C181.383 202.267 181.763 202.43 182.237 202.43ZM185.914 205.27L185.724 204.6C186.037 204.527 186.297 204.44 186.504 204.34C186.717 204.247 186.894 204.12 187.034 203.96C187.174 203.8 187.294 203.6 187.394 203.36L187.654 202.77L187.634 203.11L185.444 197.98H186.324L188.134 202.39H187.874L189.664 197.98H190.514L188.194 203.42C188.061 203.74 187.914 204.007 187.754 204.22C187.594 204.44 187.421 204.617 187.234 204.75C187.054 204.89 186.854 205 186.634 205.08C186.414 205.16 186.174 205.223 185.914 205.27Z" fill="black" fill-opacity="0.87"/>
<path d="M210.414 204.86C210.307 204.86 210.184 204.853 210.044 204.84C209.91 204.833 209.774 204.813 209.634 204.78V204.09C209.76 204.117 209.877 204.137 209.984 204.15C210.097 204.17 210.197 204.18 210.284 204.18C210.59 204.18 210.82 204.083 210.974 203.89C211.127 203.703 211.204 203.403 211.204 202.99V195.95H212.034V203C212.034 203.4 211.974 203.74 211.854 204.02C211.74 204.3 211.564 204.51 211.324 204.65C211.09 204.79 210.787 204.86 210.414 204.86ZM215.475 203.09C214.881 203.09 214.431 202.927 214.125 202.6C213.825 202.273 213.675 201.773 213.675 201.1V197.98H214.485V201.08C214.485 201.54 214.578 201.88 214.765 202.1C214.951 202.313 215.241 202.42 215.635 202.42C216.075 202.42 216.428 202.277 216.695 201.99C216.961 201.703 217.095 201.32 217.095 200.84V197.98H217.905V203H217.115V201.87H217.245C217.105 202.257 216.878 202.557 216.565 202.77C216.258 202.983 215.895 203.09 215.475 203.09ZM219.476 203V199.14C219.476 198.953 219.466 198.763 219.446 198.57C219.433 198.37 219.416 198.173 219.396 197.98H220.176L220.276 199.08H220.156C220.303 198.693 220.536 198.4 220.856 198.2C221.183 197.993 221.559 197.89 221.986 197.89C222.579 197.89 223.026 198.05 223.326 198.37C223.633 198.683 223.786 199.18 223.786 199.86V203H222.976V199.91C222.976 199.437 222.879 199.093 222.686 198.88C222.499 198.66 222.206 198.55 221.806 198.55C221.339 198.55 220.969 198.693 220.696 198.98C220.423 199.267 220.286 199.65 220.286 200.13V203H219.476Z" fill="black" fill-opacity="0.87"/>
<path d="M244.799 204.86C244.693 204.86 244.569 204.853 244.429 204.84C244.296 204.833 244.159 204.813 244.019 204.78V204.09C244.146 204.117 244.263 204.137 244.369 204.15C244.483 204.17 244.583 204.18 244.669 204.18C244.976 204.18 245.206 204.083 245.359 203.89C245.513 203.703 245.589 203.403 245.589 202.99V195.95H246.419V203C246.419 203.4 246.359 203.74 246.239 204.02C246.126 204.3 245.949 204.51 245.709 204.65C245.476 204.79 245.173 204.86 244.799 204.86ZM249.86 203.09C249.267 203.09 248.817 202.927 248.51 202.6C248.21 202.273 248.06 201.773 248.06 201.1V197.98H248.87V201.08C248.87 201.54 248.964 201.88 249.15 202.1C249.337 202.313 249.627 202.42 250.02 202.42C250.46 202.42 250.814 202.277 251.08 201.99C251.347 201.703 251.48 201.32 251.48 200.84V197.98H252.29V203H251.5V201.87H251.63C251.49 202.257 251.264 202.557 250.95 202.77C250.644 202.983 250.28 203.09 249.86 203.09ZM253.862 203V195.64H254.672V203H253.862Z" fill="black" fill-opacity="0.87"/>
<path d="M275.393 203L278.503 195.95H279.223L282.383 203H281.523L280.643 200.99L281.013 201.2H276.703L277.103 200.99L276.243 203H275.393ZM278.853 196.9L277.233 200.7L276.993 200.52H280.713L280.533 200.7L278.873 196.9H278.853ZM285.127 203.09C284.533 203.09 284.083 202.927 283.777 202.6C283.477 202.273 283.327 201.773 283.327 201.1V197.98H284.137V201.08C284.137 201.54 284.23 201.88 284.417 202.1C284.603 202.313 284.893 202.42 285.287 202.42C285.727 202.42 286.08 202.277 286.347 201.99C286.613 201.703 286.747 201.32 286.747 200.84V197.98H287.557V203H286.767V201.87H286.897C286.757 202.257 286.53 202.557 286.217 202.77C285.91 202.983 285.547 203.09 285.127 203.09ZM291.338 205.23C290.905 205.23 290.505 205.177 290.138 205.07C289.772 204.963 289.442 204.8 289.148 204.58L289.388 203.97C289.595 204.117 289.798 204.233 289.998 204.32C290.198 204.407 290.405 204.47 290.618 204.51C290.832 204.557 291.058 204.58 291.298 204.58C291.792 204.58 292.165 204.45 292.418 204.19C292.672 203.93 292.798 203.56 292.798 203.08V201.61H292.898C292.792 202.003 292.572 202.317 292.238 202.55C291.905 202.777 291.515 202.89 291.068 202.89C290.608 202.89 290.208 202.79 289.868 202.59C289.535 202.383 289.275 202.093 289.088 201.72C288.908 201.34 288.818 200.893 288.818 200.38C288.818 199.873 288.908 199.433 289.088 199.06C289.275 198.687 289.535 198.4 289.868 198.2C290.208 197.993 290.608 197.89 291.068 197.89C291.522 197.89 291.912 198.003 292.238 198.23C292.572 198.457 292.792 198.77 292.898 199.17L292.798 199.07L292.888 197.98H293.678C293.652 198.173 293.632 198.37 293.618 198.57C293.605 198.763 293.598 198.953 293.598 199.14V202.97C293.598 203.717 293.405 204.28 293.018 204.66C292.638 205.04 292.078 205.23 291.338 205.23ZM291.218 202.23C291.705 202.23 292.088 202.07 292.368 201.75C292.648 201.423 292.788 200.967 292.788 200.38C292.788 199.793 292.648 199.34 292.368 199.02C292.088 198.7 291.705 198.54 291.218 198.54C290.738 198.54 290.355 198.7 290.068 199.02C289.782 199.34 289.638 199.793 289.638 200.38C289.638 200.967 289.782 201.423 290.068 201.75C290.355 202.07 290.738 202.23 291.218 202.23Z" fill="black" fill-opacity="0.87"/>
<path d="M316.787 203.09C316.22 203.09 315.713 203.017 315.267 202.87C314.82 202.723 314.43 202.513 314.097 202.24L314.397 201.58C314.63 201.753 314.863 201.9 315.097 202.02C315.337 202.133 315.593 202.22 315.867 202.28C316.14 202.333 316.447 202.36 316.787 202.36C317.38 202.36 317.82 202.25 318.107 202.03C318.393 201.81 318.537 201.517 318.537 201.15C318.537 200.837 318.437 200.597 318.237 200.43C318.037 200.263 317.687 200.13 317.187 200.03L316.137 199.82C315.49 199.687 315.007 199.47 314.687 199.17C314.373 198.87 314.217 198.463 314.217 197.95C314.217 197.53 314.323 197.163 314.537 196.85C314.757 196.537 315.063 196.293 315.457 196.12C315.85 195.947 316.307 195.86 316.827 195.86C317.327 195.86 317.783 195.937 318.197 196.09C318.61 196.237 318.963 196.453 319.257 196.74L318.967 197.38C318.653 197.1 318.323 196.9 317.977 196.78C317.637 196.653 317.25 196.59 316.817 196.59C316.27 196.59 315.837 196.71 315.517 196.95C315.203 197.183 315.047 197.503 315.047 197.91C315.047 198.237 315.147 198.493 315.347 198.68C315.547 198.86 315.877 198.997 316.337 199.09L317.397 199.3C318.077 199.44 318.577 199.65 318.897 199.93C319.217 200.21 319.377 200.603 319.377 201.11C319.377 201.497 319.27 201.84 319.057 202.14C318.85 202.44 318.553 202.673 318.167 202.84C317.78 203.007 317.32 203.09 316.787 203.09ZM322.857 203.09C322.07 203.09 321.45 202.863 320.997 202.41C320.544 201.95 320.317 201.313 320.317 200.5C320.317 199.973 320.417 199.517 320.617 199.13C320.817 198.737 321.097 198.433 321.457 198.22C321.817 198 322.23 197.89 322.697 197.89C323.157 197.89 323.544 197.987 323.857 198.18C324.17 198.373 324.41 198.65 324.577 199.01C324.744 199.363 324.827 199.783 324.827 200.27V200.57H320.937V200.06H324.297L324.127 200.19C324.127 199.657 324.007 199.24 323.767 198.94C323.527 198.64 323.17 198.49 322.697 198.49C322.197 198.49 321.807 198.667 321.527 199.02C321.247 199.367 321.107 199.837 321.107 200.43V200.52C321.107 201.147 321.26 201.623 321.567 201.95C321.88 202.27 322.317 202.43 322.877 202.43C323.177 202.43 323.457 202.387 323.717 202.3C323.984 202.207 324.237 202.057 324.477 201.85L324.757 202.42C324.537 202.633 324.257 202.8 323.917 202.92C323.584 203.033 323.23 203.09 322.857 203.09ZM326.067 205.16V199.14C326.067 198.953 326.057 198.763 326.037 198.57C326.023 198.37 326.007 198.173 325.987 197.98H326.767L326.877 199.17H326.757C326.863 198.777 327.08 198.467 327.407 198.24C327.733 198.007 328.123 197.89 328.577 197.89C329.03 197.89 329.42 197.993 329.747 198.2C330.08 198.407 330.34 198.703 330.527 199.09C330.713 199.477 330.807 199.943 330.807 200.49C330.807 201.03 330.713 201.493 330.527 201.88C330.347 202.267 330.09 202.567 329.757 202.78C329.423 202.987 329.03 203.09 328.577 203.09C328.13 203.09 327.743 202.977 327.417 202.75C327.09 202.523 326.873 202.213 326.767 201.82H326.877V205.16H326.067ZM328.417 202.43C328.897 202.43 329.277 202.267 329.557 201.94C329.843 201.607 329.987 201.123 329.987 200.49C329.987 199.85 329.843 199.367 329.557 199.04C329.277 198.707 328.897 198.54 328.417 198.54C327.943 198.54 327.563 198.707 327.277 199.04C326.997 199.367 326.857 199.85 326.857 200.49C326.857 201.123 326.997 201.607 327.277 201.94C327.563 202.267 327.943 202.43 328.417 202.43Z" fill="black" fill-opacity="0.87"/>
<path d="M351.63 199.47C351.63 198.723 351.757 198.083 352.01 197.55C352.27 197.01 352.64 196.593 353.12 196.3C353.607 196.007 354.19 195.86 354.87 195.86C355.53 195.86 356.103 196.007 356.59 196.3C357.077 196.593 357.45 197.01 357.71 197.55C357.977 198.083 358.11 198.72 358.11 199.46C358.11 200.207 357.977 200.85 357.71 201.39C357.443 201.93 357.067 202.35 356.58 202.65C356.1 202.943 355.53 203.09 354.87 203.09C354.19 203.09 353.61 202.943 353.13 202.65C352.65 202.35 352.28 201.93 352.02 201.39C351.76 200.85 351.63 200.21 351.63 199.47ZM352.5 199.47C352.5 200.377 352.7 201.087 353.1 201.6C353.5 202.107 354.09 202.36 354.87 202.36C355.617 202.36 356.197 202.107 356.61 201.6C357.03 201.087 357.24 200.377 357.24 199.47C357.24 198.557 357.033 197.85 356.62 197.35C356.207 196.843 355.623 196.59 354.87 196.59C354.09 196.59 353.5 196.843 353.1 197.35C352.7 197.85 352.5 198.557 352.5 199.47ZM361.635 203.09C361.141 203.09 360.711 202.983 360.345 202.77C359.985 202.557 359.705 202.253 359.505 201.86C359.311 201.467 359.215 201 359.215 200.46C359.215 199.913 359.315 199.45 359.515 199.07C359.715 198.683 359.995 198.39 360.355 198.19C360.721 197.99 361.148 197.89 361.635 197.89C361.955 197.89 362.265 197.947 362.565 198.06C362.871 198.173 363.125 198.333 363.325 198.54L363.035 199.12C362.835 198.927 362.615 198.783 362.375 198.69C362.141 198.597 361.911 198.55 361.685 198.55C361.165 198.55 360.761 198.713 360.475 199.04C360.188 199.367 360.045 199.843 360.045 200.47C360.045 201.09 360.188 201.57 360.475 201.91C360.761 202.25 361.165 202.42 361.685 202.42C361.905 202.42 362.131 202.377 362.365 202.29C362.605 202.203 362.828 202.06 363.035 201.86L363.325 202.43C363.118 202.643 362.861 202.807 362.555 202.92C362.248 203.033 361.941 203.09 361.635 203.09ZM366.256 203.09C365.762 203.09 365.386 202.95 365.126 202.67C364.866 202.383 364.736 201.953 364.736 201.38V198.61H363.756V197.98H364.736V196.61L365.546 196.38V197.98H366.986V198.61H365.546V201.29C365.546 201.69 365.612 201.977 365.746 202.15C365.886 202.317 366.092 202.4 366.366 202.4C366.492 202.4 366.606 202.39 366.706 202.37C366.806 202.343 366.896 202.313 366.976 202.28V202.96C366.882 203 366.769 203.03 366.636 203.05C366.509 203.077 366.382 203.09 366.256 203.09Z" fill="black" fill-opacity="0.87"/>
<path d="M387.543 203V195.95H388.193L392.713 201.95H392.483V195.95H393.253V203H392.613L388.093 197H388.313V203H387.543ZM396.984 203.09C396.504 203.09 396.084 202.987 395.724 202.78C395.371 202.567 395.097 202.267 394.904 201.88C394.711 201.487 394.614 201.023 394.614 200.49C394.614 199.95 394.711 199.487 394.904 199.1C395.097 198.713 395.371 198.417 395.724 198.21C396.084 197.997 396.504 197.89 396.984 197.89C397.471 197.89 397.891 197.997 398.244 198.21C398.604 198.417 398.881 198.713 399.074 199.1C399.274 199.487 399.374 199.95 399.374 200.49C399.374 201.023 399.274 201.487 399.074 201.88C398.881 202.267 398.604 202.567 398.244 202.78C397.891 202.987 397.471 203.09 396.984 203.09ZM396.984 202.43C397.464 202.43 397.844 202.267 398.124 201.94C398.404 201.607 398.544 201.123 398.544 200.49C398.544 199.85 398.401 199.367 398.114 199.04C397.834 198.707 397.457 198.54 396.984 198.54C396.511 198.54 396.134 198.707 395.854 199.04C395.574 199.367 395.434 199.85 395.434 200.49C395.434 201.123 395.574 201.607 395.854 201.94C396.134 202.267 396.511 202.43 396.984 202.43ZM402.048 203L399.898 197.98H400.778L402.578 202.4H402.308L404.128 197.98H404.968L402.818 203H402.048Z" fill="black" fill-opacity="0.87"/>
<path d="M425.019 203V195.95H427.359C428.139 195.95 428.799 196.087 429.339 196.36C429.879 196.627 430.289 197.023 430.569 197.55C430.849 198.07 430.989 198.71 430.989 199.47C430.989 200.223 430.849 200.863 430.569 201.39C430.289 201.917 429.879 202.317 429.339 202.59C428.799 202.863 428.139 203 427.359 203H425.019ZM425.849 202.29H427.299C428.259 202.29 428.972 202.057 429.439 201.59C429.905 201.117 430.139 200.41 430.139 199.47C430.139 198.523 429.905 197.817 429.439 197.35C428.972 196.883 428.259 196.65 427.299 196.65H425.849V202.29ZM434.629 203.09C433.843 203.09 433.223 202.863 432.769 202.41C432.316 201.95 432.089 201.313 432.089 200.5C432.089 199.973 432.189 199.517 432.389 199.13C432.589 198.737 432.869 198.433 433.229 198.22C433.589 198 434.003 197.89 434.469 197.89C434.929 197.89 435.316 197.987 435.629 198.18C435.943 198.373 436.183 198.65 436.349 199.01C436.516 199.363 436.599 199.783 436.599 200.27V200.57H432.709V200.06H436.069L435.899 200.19C435.899 199.657 435.779 199.24 435.539 198.94C435.299 198.64 434.943 198.49 434.469 198.49C433.969 198.49 433.579 198.667 433.299 199.02C433.019 199.367 432.879 199.837 432.879 200.43V200.52C432.879 201.147 433.033 201.623 433.339 201.95C433.653 202.27 434.089 202.43 434.649 202.43C434.949 202.43 435.229 202.387 435.489 202.3C435.756 202.207 436.009 202.057 436.249 201.85L436.529 202.42C436.309 202.633 436.029 202.8 435.689 202.92C435.356 203.033 435.003 203.09 434.629 203.09ZM439.949 203.09C439.455 203.09 439.025 202.983 438.659 202.77C438.299 202.557 438.019 202.253 437.819 201.86C437.625 201.467 437.529 201 437.529 200.46C437.529 199.913 437.629 199.45 437.829 199.07C438.029 198.683 438.309 198.39 438.669 198.19C439.035 197.99 439.462 197.89 439.949 197.89C440.269 197.89 440.579 197.947 440.879 198.06C441.185 198.173 441.439 198.333 441.639 198.54L441.349 199.12C441.149 198.927 440.929 198.783 440.689 198.69C440.455 198.597 440.225 198.55 439.999 198.55C439.479 198.55 439.075 198.713 438.789 199.04C438.502 199.367 438.359 199.843 438.359 200.47C438.359 201.09 438.502 201.57 438.789 201.91C439.075 202.25 439.479 202.42 439.999 202.42C440.219 202.42 440.445 202.377 440.679 202.29C440.919 202.203 441.142 202.06 441.349 201.86L441.639 202.43C441.432 202.643 441.175 202.807 440.869 202.92C440.562 203.033 440.255 203.09 439.949 203.09Z" fill="black" fill-opacity="0.87"/>
<path d="M9.86781 43V41.47H6.50781V40.87L9.99781 35.95H10.6778V40.8H11.7578V41.47H10.6778V43H9.86781ZM9.86781 40.8V36.93H10.0878L7.18781 41.01V40.8H9.86781ZM15.0039 43.09C14.2039 43.09 13.5906 42.78 13.1639 42.16C12.7372 41.54 12.5239 40.6433 12.5239 39.47C12.5239 38.29 12.7372 37.3933 13.1639 36.78C13.5906 36.1667 14.2039 35.86 15.0039 35.86C15.8106 35.86 16.4239 36.1667 16.8439 36.78C17.2706 37.3933 17.4839 38.2867 17.4839 39.46C17.4839 40.64 17.2706 41.54 16.8439 42.16C16.4172 42.78 15.8039 43.09 15.0039 43.09ZM15.0039 42.37C15.5639 42.37 15.9806 42.1333 16.2539 41.66C16.5272 41.1867 16.6639 40.4533 16.6639 39.46C16.6639 38.46 16.5272 37.73 16.2539 37.27C15.9806 36.8033 15.5639 36.57 15.0039 36.57C14.4506 36.57 14.0339 36.8033 13.7539 37.27C13.4806 37.7367 13.3439 38.4667 13.3439 39.46C13.3439 40.4533 13.4806 41.1867 13.7539 41.66C14.0339 42.1333 14.4506 42.37 15.0039 42.37Z" fill="black" fill-opacity="0.6"/>
<rect width="424" height="1" transform="translate(26 39)" fill="black" fill-opacity="0.12"/>
<path d="M8.96781 89.09C8.49448 89.09 8.04115 89.0167 7.60781 88.87C7.17448 88.7233 6.81115 88.5133 6.51781 88.24L6.82781 87.6C7.15448 87.8667 7.49115 88.06 7.83781 88.18C8.18448 88.3 8.55781 88.36 8.95781 88.36C9.48448 88.36 9.88448 88.25 10.1578 88.03C10.4311 87.8033 10.5678 87.4733 10.5678 87.04C10.5678 86.6267 10.4278 86.3133 10.1478 86.1C9.86781 85.88 9.45781 85.77 8.91781 85.77H7.85781V85.08H8.84781C9.31448 85.08 9.68448 84.96 9.95781 84.72C10.2311 84.48 10.3678 84.1533 10.3678 83.74C10.3678 83.3667 10.2411 83.0833 9.98781 82.89C9.74115 82.69 9.38448 82.59 8.91781 82.59C8.15781 82.59 7.50115 82.86 6.94781 83.4L6.63781 82.75C6.91115 82.47 7.25448 82.2533 7.66781 82.1C8.08115 81.94 8.51448 81.86 8.96781 81.86C9.66115 81.86 10.2045 82.02 10.5978 82.34C10.9911 82.66 11.1878 83.1033 11.1878 83.67C11.1878 84.1033 11.0645 84.4767 10.8178 84.79C10.5711 85.0967 10.2378 85.3067 9.81781 85.42V85.31C10.3178 85.39 10.7045 85.59 10.9778 85.91C11.2511 86.2233 11.3878 86.62 11.3878 87.1C11.3878 87.7133 11.1711 88.2 10.7378 88.56C10.3111 88.9133 9.72115 89.09 8.96781 89.09ZM15.0039 89.09C14.2039 89.09 13.5906 88.78 13.1639 88.16C12.7372 87.54 12.5239 86.6433 12.5239 85.47C12.5239 84.29 12.7372 83.3933 13.1639 82.78C13.5906 82.1667 14.2039 81.86 15.0039 81.86C15.8106 81.86 16.4239 82.1667 16.8439 82.78C17.2706 83.3933 17.4839 84.2867 17.4839 85.46C17.4839 86.64 17.2706 87.54 16.8439 88.16C16.4172 88.78 15.8039 89.09 15.0039 89.09ZM15.0039 88.37C15.5639 88.37 15.9806 88.1333 16.2539 87.66C16.5272 87.1867 16.6639 86.4533 16.6639 85.46C16.6639 84.46 16.5272 83.73 16.2539 83.27C15.9806 82.8033 15.5639 82.57 15.0039 82.57C14.4506 82.57 14.0339 82.8033 13.7539 83.27C13.4806 83.7367 13.3439 84.4667 13.3439 85.46C13.3439 86.4533 13.4806 87.1867 13.7539 87.66C14.0339 88.1333 14.4506 88.37 15.0039 88.37Z" fill="black" fill-opacity="0.6"/>
<rect width="424" height="1" transform="translate(26 85)" fill="black" fill-opacity="0.12"/>
<path d="M6.86781 135V134.38L9.36781 131.77C9.69448 131.43 9.93781 131.107 10.0978 130.8C10.2645 130.487 10.3478 130.163 10.3478 129.83C10.3478 129.423 10.2211 129.117 9.96781 128.91C9.71448 128.697 9.34781 128.59 8.86781 128.59C8.49448 128.59 8.14781 128.657 7.82781 128.79C7.51448 128.917 7.21115 129.12 6.91781 129.4L6.61781 128.75C6.88448 128.483 7.22448 128.27 7.63781 128.11C8.05115 127.943 8.48781 127.86 8.94781 127.86C9.66115 127.86 10.2111 128.027 10.5978 128.36C10.9845 128.687 11.1778 129.153 11.1778 129.76C11.1778 130.207 11.0678 130.633 10.8478 131.04C10.6345 131.44 10.3211 131.853 9.90781 132.28L7.69781 134.52V134.29H11.4778V135H6.86781ZM15.0039 135.09C14.2039 135.09 13.5906 134.78 13.1639 134.16C12.7372 133.54 12.5239 132.643 12.5239 131.47C12.5239 130.29 12.7372 129.393 13.1639 128.78C13.5906 128.167 14.2039 127.86 15.0039 127.86C15.8106 127.86 16.4239 128.167 16.8439 128.78C17.2706 129.393 17.4839 130.287 17.4839 131.46C17.4839 132.64 17.2706 133.54 16.8439 134.16C16.4172 134.78 15.8039 135.09 15.0039 135.09ZM15.0039 134.37C15.5639 134.37 15.9806 134.133 16.2539 133.66C16.5272 133.187 16.6639 132.453 16.6639 131.46C16.6639 130.46 16.5272 129.73 16.2539 129.27C15.9806 128.803 15.5639 128.57 15.0039 128.57C14.4506 128.57 14.0339 128.803 13.7539 129.27C13.4806 129.737 13.3439 130.467 13.3439 131.46C13.3439 132.453 13.4806 133.187 13.7539 133.66C14.0339 134.133 14.4506 134.37 15.0039 134.37Z" fill="black" fill-opacity="0.6"/>
<rect width="424" height="1" transform="translate(26 131)" fill="black" fill-opacity="0.12"/>
<path d="M15.0039 181.09C14.2039 181.09 13.5906 180.78 13.1639 180.16C12.7372 179.54 12.5239 178.643 12.5239 177.47C12.5239 176.29 12.7372 175.393 13.1639 174.78C13.5906 174.167 14.2039 173.86 15.0039 173.86C15.8106 173.86 16.4239 174.167 16.8439 174.78C17.2706 175.393 17.4839 176.287 17.4839 177.46C17.4839 178.64 17.2706 179.54 16.8439 180.16C16.4172 180.78 15.8039 181.09 15.0039 181.09ZM15.0039 180.37C15.5639 180.37 15.9806 180.133 16.2539 179.66C16.5272 179.187 16.6639 178.453 16.6639 177.46C16.6639 176.46 16.5272 175.73 16.2539 175.27C15.9806 174.803 15.5639 174.57 15.0039 174.57C14.4506 174.57 14.0339 174.803 13.7539 175.27C13.4806 175.737 13.3439 176.467 13.3439 177.46C13.3439 178.453 13.4806 179.187 13.7539 179.66C14.0339 180.133 14.4506 180.37 15.0039 180.37Z" fill="black" fill-opacity="0.6"/>
<rect width="424" height="1" transform="translate(26 177)" fill="black" fill-opacity="0.12"/>
<g clip-path="url(#clip1_64_12010)">
<rect width="10" height="33" transform="translate(24 144)" fill="#056839"/>
<rect width="10" height="52" transform="translate(34 125)" fill="#D6DF24"/>
<rect width="10" height="49" transform="translate(60 128)" fill="#056839"/>
<rect width="10" height="59" transform="translate(70 118)" fill="#D6DF24"/>
<rect width="10" height="30" transform="translate(96 147)" fill="#056839"/>
<rect width="10" height="45" transform="translate(106 132)" fill="#D6DF24"/>
<rect width="10" height="63" transform="translate(132 114)" fill="#056839"/>
<rect width="10" height="94" transform="translate(142 83)" fill="#D6DF24"/>
<rect width="10" height="111" transform="translate(168 66)" fill="#056839"/>
<rect width="10" height="130" transform="translate(178 47)" fill="#D6DF24"/>
<rect width="10" height="90" transform="translate(204 87)" fill="#056839"/>
<rect width="10" height="106" transform="translate(214 71)" fill="#D6DF24"/>
<rect width="10" height="63" transform="translate(240 114)" fill="#056839"/>
<rect width="10" height="94" transform="translate(250 83)" fill="#D6DF24"/>
<rect width="10" height="46" transform="translate(276 131)" fill="#056839"/>
<rect width="10" height="52" transform="translate(286 125)" fill="#D6DF24"/>
<rect width="10" height="63" transform="translate(312 114)" fill="#056839"/>
<rect width="10" height="72" transform="translate(322 105)" fill="#D6DF24"/>
<rect width="10" height="48" transform="translate(348 129)" fill="#056839"/>
<rect width="10" height="57" transform="translate(358 120)" fill="#D6DF24"/>
<rect width="10" height="123" transform="translate(384 54)" fill="#056839"/>
<rect width="10" height="138" transform="translate(394 39)" fill="#D6DF24"/>
<rect width="10" height="110" transform="translate(420 67)" fill="#056839"/>
<rect width="10" height="114" transform="translate(430 63)" fill="#D6DF24"/>
</g>
</g>
<defs>
<clipPath id="clip0_64_12010">
<rect width="450" height="206" fill="white"/>
</clipPath>
<clipPath id="clip1_64_12010">
<rect width="416" height="177" fill="white" transform="translate(24)"/>
</clipPath>
</defs>
</svg>
