<svg width="18" height="16" viewBox="0 0 18 16" fill="none" xmlns="http://www.w3.org/2000/svg">
<path d="M16.5 8.18333C16.5 3.60833 12.95 0.5 9.00002 0.5C5.09169 0.5 1.50002 3.54167 1.50002 8.23333C1.00002 8.51667 0.666687 9.05 0.666687 9.66667V11.3333C0.666687 12.25 1.41669 13 2.33335 13H3.16669V7.91667C3.16669 4.69167 5.77502 2.08333 9.00002 2.08333C12.225 2.08333 14.8334 4.69167 14.8334 7.91667V13.8333H8.16669V15.5H14.8334C15.75 15.5 16.5 14.75 16.5 13.8333V12.8167C16.9917 12.5583 17.3334 12.05 17.3334 11.45V9.53333C17.3334 8.95 16.9917 8.44167 16.5 8.18333Z" fill="#959595"/>
</svg>
