<svg width="45" height="45" viewBox="0 0 45 45" fill="none" xmlns="http://www.w3.org/2000/svg">
<rect x="0.62207" y="0.77002" width="44.217" height="44.217" rx="22.1085" fill="#056839"/>
<path fill-rule="evenodd" clip-rule="evenodd" d="M28.7601 16.8489C28.7601 20.1789 26.0609 22.8785 22.7305 22.8785C19.4001 22.8785 16.7009 20.1789 16.7009 16.8489C16.7009 13.519 19.4001 10.8193 22.7305 10.8193C26.0609 10.8193 28.7601 13.519 28.7601 16.8489ZM12.1787 33.3031C12.1787 28.7951 15.8346 25.1396 20.3422 25.1396H25.1188C29.6268 25.1396 33.2823 28.7951 33.2823 33.3031C33.2823 34.2076 32.5521 34.9377 31.6505 34.9363H13.8114C12.9098 34.9363 12.1787 34.2047 12.1787 33.3031Z" fill="white"/>
</svg>
