<svg width="173" height="169" viewBox="0 0 173 169" fill="none" xmlns="http://www.w3.org/2000/svg">
<path d="M25.1406 144.823C13.1077 132.79 5.08772 117.332 2.17852 100.566L13.5649 98.5901C16.0668 113.009 22.964 126.303 33.3122 136.651L25.1406 144.823Z" fill="#E6000E"/>
<path d="M6.94478 55.6039C12.6579 41.4247 22.1963 29.1105 34.4968 20.0337C46.7972 10.9569 61.3766 5.47409 76.61 4.19633C91.8435 2.91857 107.132 5.89606 120.773 12.7969C134.414 19.6978 145.87 30.251 153.866 43.2804L144.016 49.3246C137.14 38.1194 127.287 29.0437 115.556 23.1089C103.825 17.1741 90.6767 14.6135 77.576 15.7124C64.4752 16.8112 51.937 21.5265 41.3586 29.3325C30.7802 37.1385 22.5772 47.7287 17.6639 59.9229L6.94478 55.6039Z" fill="#098A16"/>
<path d="M2.29761 101.236C-0.495894 85.8882 1.11668 70.0633 6.94849 55.5947L17.667 59.9149C12.6517 72.358 11.2649 85.9674 13.6673 99.1663L2.29761 101.236Z" fill="#FAA017"/>
<path d="M165.652 78.294C166.863 90.4876 165.344 102.798 161.206 114.331C157.068 125.865 150.414 136.333 141.727 144.975L133.576 136.782C141.047 129.35 146.77 120.348 150.329 110.429C153.888 100.51 155.194 89.9228 154.152 79.4364L165.652 78.294Z" fill="#E6000E"/>
<path d="M64.0014 74.303H64.2983V77.2161H64.0014C62.183 77.2161 60.6615 77.5129 59.4369 78.1067C58.2123 78.6881 57.2413 79.4736 56.5238 80.4631C55.8064 81.4403 55.2869 82.5413 54.9652 83.7659C54.656 84.9905 54.5014 86.2336 54.5014 87.4954V91.4661C54.5014 92.6659 54.6436 93.7297 54.9281 94.6575C55.2126 95.5728 55.6023 96.3459 56.0971 96.9768C56.5919 97.6077 57.1485 98.0839 57.767 98.4055C58.3979 98.7271 59.0535 98.8879 59.7338 98.8879C60.5255 98.8879 61.2305 98.7395 61.849 98.4426C62.4675 98.1334 62.9871 97.7066 63.4076 97.1624C63.8406 96.6057 64.1684 95.9501 64.391 95.1956C64.6137 94.441 64.725 93.6122 64.725 92.7092C64.725 91.9052 64.6261 91.1321 64.4281 90.3899C64.2302 89.6353 63.9272 88.9674 63.519 88.386C63.1108 87.7922 62.5974 87.3284 61.9789 86.9944C61.3728 86.648 60.6492 86.4749 59.808 86.4749C58.8555 86.4749 57.9649 86.7099 57.1361 87.1799C56.3197 87.6376 55.6456 88.2437 55.1137 88.9983C54.5942 89.7405 54.2973 90.5507 54.2231 91.429L52.4047 91.4104C52.5779 90.025 52.8995 88.8437 53.3695 87.8665C53.852 86.8769 54.4457 86.0728 55.1508 85.4543C55.8682 84.8235 56.6661 84.3658 57.5443 84.0813C58.435 83.7844 59.3751 83.636 60.3647 83.636C61.713 83.636 62.8757 83.8896 63.8529 84.3967C64.8302 84.9039 65.6342 85.5842 66.2651 86.4377C66.8959 87.2789 67.3598 88.2314 67.6567 89.2952C67.9659 90.3466 68.1205 91.429 68.1205 92.5422C68.1205 93.8163 67.9412 95.01 67.5824 96.1233C67.2237 97.2366 66.6856 98.2138 65.9682 99.0549C65.2631 99.8961 64.391 100.552 63.352 101.022C62.3129 101.492 61.1068 101.727 59.7338 101.727C58.2742 101.727 57.0001 101.43 55.9115 100.836C54.823 100.23 53.92 99.426 53.2026 98.4241C52.4851 97.4221 51.947 96.3088 51.5883 95.0842C51.2296 93.8596 51.0502 92.6165 51.0502 91.3547V89.7405C51.0502 87.8355 51.2419 85.9677 51.6254 84.137C52.0089 82.3062 52.6707 80.6487 53.6108 79.1643C54.5632 77.6799 55.8806 76.4986 57.5629 75.6204C59.2452 74.7421 61.3914 74.303 64.0014 74.303ZM90.4604 92.2639V95.0842H70.9408V93.0618L83.0385 74.3401H85.8402L82.8344 79.7581L74.8373 92.2639H90.4604ZM86.6938 74.3401V101.356H83.2611V74.3401H86.6938ZM93.2807 80.9641V79.5354C93.2807 78.5087 93.5033 77.5748 93.9486 76.7336C94.394 75.8925 95.031 75.2183 95.8598 74.7112C96.6886 74.204 97.672 73.9504 98.81 73.9504C99.9727 73.9504 100.962 74.204 101.779 74.7112C102.608 75.2183 103.245 75.8925 103.69 76.7336C104.135 77.5748 104.358 78.5087 104.358 79.5354V80.9641C104.358 81.9661 104.135 82.8876 103.69 83.7288C103.257 84.5699 102.626 85.2441 101.797 85.7512C100.981 86.2584 99.9975 86.512 98.8471 86.512C97.6967 86.512 96.7009 86.2584 95.8598 85.7512C95.031 85.2441 94.394 84.5699 93.9486 83.7288C93.5033 82.8876 93.2807 81.9661 93.2807 80.9641ZM95.8598 79.5354V80.9641C95.8598 81.5331 95.9649 82.0712 96.1752 82.5784C96.3979 83.0855 96.7318 83.4999 97.1772 83.8215C97.6225 84.1308 98.1791 84.2854 98.8471 84.2854C99.5151 84.2854 100.066 84.1308 100.498 83.8215C100.931 83.4999 101.253 83.0855 101.463 82.5784C101.674 82.0712 101.779 81.5331 101.779 80.9641V79.5354C101.779 78.954 101.667 78.4097 101.445 77.9026C101.234 77.3831 100.907 76.9687 100.461 76.6594C100.028 76.3378 99.4779 76.177 98.81 76.177C98.1544 76.177 97.6039 76.3378 97.1586 76.6594C96.7257 76.9687 96.3979 77.3831 96.1752 77.9026C95.9649 78.4097 95.8598 78.954 95.8598 79.5354ZM106.436 96.179V94.7317C106.436 93.7174 106.659 92.7896 107.104 91.9485C107.549 91.1073 108.186 90.4332 109.015 89.926C109.844 89.4189 110.827 89.1653 111.965 89.1653C113.128 89.1653 114.118 89.4189 114.934 89.926C115.763 90.4332 116.4 91.1073 116.845 91.9485C117.29 92.7896 117.513 93.7174 117.513 94.7317V96.179C117.513 97.1933 117.29 98.121 116.845 98.9622C116.412 99.8033 115.781 100.477 114.953 100.985C114.136 101.492 113.153 101.745 112.002 101.745C110.852 101.745 109.862 101.492 109.034 100.985C108.205 100.477 107.562 99.8033 107.104 98.9622C106.659 98.121 106.436 97.1933 106.436 96.179ZM109.015 94.7317V96.179C109.015 96.748 109.12 97.2922 109.33 97.8118C109.553 98.3189 109.887 98.7333 110.332 99.0549C110.778 99.3642 111.334 99.5188 112.002 99.5188C112.67 99.5188 113.221 99.3642 113.654 99.0549C114.099 98.7333 114.427 98.3189 114.637 97.8118C114.847 97.3046 114.953 96.7603 114.953 96.179V94.7317C114.953 94.1503 114.841 93.606 114.619 93.0989C114.408 92.5917 114.08 92.1835 113.635 91.8743C113.202 91.5527 112.646 91.3918 111.965 91.3918C111.31 91.3918 110.759 91.5527 110.314 91.8743C109.881 92.1835 109.553 92.5917 109.33 93.0989C109.12 93.606 109.015 94.1503 109.015 94.7317ZM112.819 78.1809L99.6264 99.2961L97.6967 98.0715L110.889 76.9563L112.819 78.1809Z" fill="#2ECF3E" fill-opacity="0.6"/>
<path d="M143.881 2.21072L85.2263 147.429C84.3619 149.569 81.9018 150.573 79.7864 149.65C77.6753 148.729 76.7376 146.249 77.7108 144.162L143.881 2.21072Z" fill="#052B4E"/>
<path d="M153.478 42.6555C160.354 53.6388 164.547 66.0865 165.718 78.9912L154.209 80.036C153.201 68.9379 149.595 58.2329 143.683 48.7872L153.478 42.6555Z" fill="#FAA017"/>
<path d="M153.663 99.5862L172.037 102.447" stroke="#E5000E" stroke-width="3"/>
</svg>
