<svg width="154" height="154" viewBox="0 0 154 154" fill="none" xmlns="http://www.w3.org/2000/svg">
<path d="M154 77C154 91.2005 150.073 105.124 142.653 117.232C135.234 129.34 124.61 139.161 111.957 145.607C99.3045 152.054 85.1154 154.877 70.9587 153.763C56.8019 152.648 43.229 147.641 31.7405 139.294L43.0554 123.721C51.6718 129.981 61.8514 133.736 72.469 134.572C83.0865 135.408 93.7284 133.291 103.218 128.456C112.708 123.62 120.675 116.255 126.24 107.174C131.805 98.0933 134.75 87.6504 134.75 77H154Z" fill="#D6DF24"/>
<path d="M30.5977 138.448C20.1782 130.579 11.9306 120.191 6.63019 108.258C1.32979 96.326 -0.849316 83.2418 0.297697 70.2356C1.44471 57.2295 5.88017 44.7286 13.1871 33.908C20.4941 23.0875 30.4326 14.3027 42.0684 8.37944C53.7041 2.4562 66.655 -0.410963 79.7036 0.0474788C92.7522 0.505921 105.47 4.27491 116.661 11.0002C127.853 17.7254 137.15 27.186 143.68 38.4927C150.209 49.7993 153.757 62.5807 153.988 75.6353L134.741 75.9765C134.567 66.1855 131.907 56.5995 127.01 48.1195C122.113 39.6395 115.14 32.544 106.746 27.5001C98.3524 22.4562 88.8141 19.6294 79.0277 19.2856C69.2413 18.9418 59.5281 21.0921 50.8013 25.5346C42.0744 29.977 34.6206 36.5656 29.1404 44.681C23.6601 52.7964 20.3335 62.1721 19.4733 71.9267C18.613 81.6814 20.2473 91.4945 24.2226 100.444C28.1979 109.393 34.3836 117.185 42.1982 123.086L30.5977 138.448Z" fill="#056839"/>
</svg>
