<svg width="18" height="18" viewBox="0 0 18 18" fill="none" xmlns="http://www.w3.org/2000/svg">
<path d="M9.00002 0.666748C4.40002 0.666748 0.666687 4.40008 0.666687 9.00008C0.666687 13.6001 4.40002 17.3334 9.00002 17.3334C13.6 17.3334 17.3334 13.6001 17.3334 9.00008C17.3334 4.40008 13.6 0.666748 9.00002 0.666748ZM9.00002 3.16675C10.3834 3.16675 11.5 4.28341 11.5 5.66675C11.5 7.05008 10.3834 8.16675 9.00002 8.16675C7.61669 8.16675 6.50002 7.05008 6.50002 5.66675C6.50002 4.28341 7.61669 3.16675 9.00002 3.16675ZM9.00002 15.0001C6.91669 15.0001 5.07502 13.9334 4.00002 12.3167C4.02502 10.6584 7.33335 9.75008 9.00002 9.75008C10.6584 9.75008 13.975 10.6584 14 12.3167C12.925 13.9334 11.0834 15.0001 9.00002 15.0001Z" fill="#959595"/>
</svg>
