<svg width="20" height="20" viewBox="0 0 20 20" fill="none" xmlns="http://www.w3.org/2000/svg">
<path fill-rule="evenodd" clip-rule="evenodd" d="M8.75 1.875C8.75 1.18359 9.30859 0.625 10 0.625C10.6914 0.625 11.25 1.18359 11.25 1.875C11.25 2.56641 10.6914 3.125 10 3.125C9.30859 3.125 8.75 2.56641 8.75 1.875ZM4.25391 3.00273C3.56641 3.00273 3.00391 3.56523 3.00391 4.25273C3.00391 4.94414 3.56641 5.50273 4.25391 5.50273C4.94531 5.50273 5.50391 4.94414 5.50391 4.25273C5.50391 3.56523 4.94531 3.00273 4.25391 3.00273ZM4.25391 14.4961C3.56641 14.4961 3.00391 15.0547 3.00391 15.7461C3.00391 16.4336 3.56641 16.9961 4.25391 16.9961C4.94531 16.9961 5.50391 16.4336 5.50391 15.7461C5.50391 15.0547 4.94531 14.4961 4.25391 14.4961ZM8.75 18.125C8.75 17.4336 9.30859 16.875 10 16.875C10.6914 16.875 11.25 17.4336 11.25 18.125C11.25 18.8164 10.6914 19.375 10 19.375C9.30859 19.375 8.75 18.8164 8.75 18.125ZM1.875 8.75C1.18359 8.75 0.625 9.30859 0.625 10C0.625 10.6914 1.18359 11.25 1.875 11.25C2.56641 11.25 3.125 10.6914 3.125 10C3.125 9.30859 2.56641 8.75 1.875 8.75ZM18.125 8.75C17.4336 8.75 16.875 9.30859 16.875 10C16.875 10.6914 17.4336 11.25 18.125 11.25C18.8164 11.25 19.375 10.6914 19.375 10C19.375 9.30859 18.8164 8.75 18.125 8.75ZM14.4961 15.7461C14.4961 15.0547 15.0547 14.4961 15.7461 14.4961C16.4336 14.4961 16.9961 15.0547 16.9961 15.7461C16.9961 16.4336 16.4336 16.9961 15.7461 16.9961C15.0547 16.9961 14.4961 16.4336 14.4961 15.7461Z" fill="#F6F8FE"/>
</svg>
