<svg width="20" height="20" viewBox="0 0 20 20" fill="none" xmlns="http://www.w3.org/2000/svg">
<path fill-rule="evenodd" clip-rule="evenodd" d="M15.626 1.35388C16.0862 1.35388 16.4593 1.72698 16.4593 2.18722V2.46473C16.6031 2.52756 16.7384 2.60615 16.8631 2.69832L17.1037 2.55942C17.5023 2.3293 18.0119 2.46586 18.2421 2.86444C18.4722 3.26301 18.3356 3.77267 17.937 4.00279L17.6964 4.14171C17.7049 4.2182 17.7093 4.29595 17.7093 4.37472C17.7093 4.45357 17.7049 4.5314 17.6964 4.60798L17.937 4.74692C18.3356 4.97704 18.4722 5.48669 18.2421 5.88527C18.0119 6.28385 17.5023 6.42041 17.1037 6.19029L16.8629 6.05127C16.7383 6.14337 16.603 6.22191 16.4593 6.2847V6.56222C16.4593 7.02245 16.0862 7.39555 15.626 7.39555C15.1657 7.39555 14.7926 7.02245 14.7926 6.56222V6.2847C14.6489 6.22191 14.5137 6.14337 14.389 6.05127L14.1483 6.19029C13.7497 6.42041 13.24 6.28385 13.0099 5.88527C12.7798 5.48669 12.9163 4.97704 13.3149 4.74692L13.5556 4.60798C13.547 4.5314 13.5426 4.45357 13.5426 4.37472C13.5426 4.29595 13.547 4.2182 13.5555 4.14171L13.3149 4.00279C12.9163 3.77267 12.7798 3.26301 13.0099 2.86444C13.24 2.46586 13.7497 2.3293 14.1483 2.55942L14.3888 2.69832C14.5135 2.60615 14.6488 2.52756 14.7926 2.46473V2.18722C14.7926 1.72698 15.1657 1.35388 15.626 1.35388ZM15.982 4.15821L15.9868 4.16652L15.9918 4.17511C16.0242 4.23438 16.0426 4.3024 16.0426 4.37472C16.0426 4.44906 16.0232 4.51885 15.9891 4.57928L15.9868 4.58319L15.9847 4.58681C15.9121 4.70927 15.7786 4.79138 15.626 4.79138C15.4733 4.79138 15.3398 4.70927 15.2673 4.58681L15.2652 4.58319L15.2629 4.57922C15.2288 4.51881 15.2093 4.44903 15.2093 4.37472C15.2093 4.30241 15.2277 4.2344 15.2601 4.17513L15.2652 4.16652L15.2699 4.15818C15.3431 4.03818 15.4752 3.95805 15.626 3.95805C15.7768 3.95805 15.9089 4.03819 15.982 4.15821ZM10.0004 13.333C8.61062 13.333 7.24529 13.6988 6.04158 14.3935C4.83787 15.0882 3.83818 16.0875 3.14293 17.2909C2.9127 17.6894 2.403 17.8258 2.00449 17.5956C1.60598 17.3653 1.46956 16.8556 1.6998 16.4571C2.54136 15.0005 3.75144 13.7909 5.20846 12.95C5.67222 12.6823 6.1558 12.455 6.65384 12.2695C5.93862 11.7671 5.34321 11.1088 4.91446 10.3412C4.38544 9.39404 4.13112 8.31811 4.1801 7.23436C4.22908 6.1506 4.57942 5.102 5.19171 4.20645C5.80401 3.3109 6.654 2.60392 7.64609 2.16499C8.63819 1.72606 9.73306 1.57258 10.8076 1.72183C11.2635 1.78514 11.5817 2.20602 11.5184 2.66188C11.4551 3.11774 11.0342 3.43596 10.5783 3.37265C9.8109 3.26606 9.02896 3.37567 8.32042 3.68914C7.61188 4.00262 7.00484 4.50754 6.56755 5.14713C6.13025 5.78671 5.88005 6.53561 5.84507 7.3096C5.81009 8.0836 5.99172 8.85201 6.36953 9.52844C6.74735 10.2049 7.30637 10.7625 7.98375 11.1386C8.66112 11.5147 9.42998 11.6944 10.2039 11.6575C10.9778 11.6205 11.7261 11.3685 12.3645 10.9296C13.003 10.4907 13.5064 9.88235 13.8181 9.17302C14.0033 8.75167 14.4949 8.56019 14.9163 8.74534C15.3376 8.9305 15.5291 9.42216 15.344 9.84352C14.9148 10.8201 14.2262 11.6599 13.3534 12.2719C13.8492 12.457 14.3306 12.6836 14.7924 12.9501C16.2494 13.791 17.4595 15.0006 18.301 16.4573C18.5312 16.8558 18.3948 17.3655 17.9963 17.5957C17.5978 17.8259 17.0881 17.6895 16.8578 17.291C16.1626 16.0876 15.1629 15.0883 13.9593 14.3936C12.7556 13.6988 11.3902 13.3331 10.0004 13.333Z" fill="#616161"/>
</svg>
