<svg width="18" height="17" viewBox="0 0 18 17" fill="none" xmlns="http://www.w3.org/2000/svg">
    <path
        d="M12.0625 10.0001C11.9133 10.0001 11.7702 10.0594 11.6648 10.1649C11.5593 10.2704 11.5 10.4134 11.5 10.5626C11.5 10.7118 11.5593 10.8549 11.6648 10.9604C11.7702 11.0659 11.9133 11.1251 12.0625 11.1251H13.9375C14.0867 11.1251 14.2298 11.0659 14.3352 10.9604C14.4407 10.8549 14.5 10.7118 14.5 10.5626C14.5 10.4134 14.4407 10.2704 14.3352 10.1649C14.2298 10.0594 14.0867 10.0001 13.9375 10.0001H12.0625ZM0.250001 2.31262C0.250001 1.76561 0.4673 1.24101 0.854093 0.854214C1.24089 0.467421 1.76549 0.250122 2.3125 0.250122H12.4375C12.9845 0.250122 13.5091 0.467421 13.8959 0.854214C14.2827 1.24101 14.5 1.76561 14.5 2.31262V3.25612C15.2119 3.30369 15.8792 3.62006 16.3665 4.14116C16.8539 4.66225 17.1251 5.34911 17.125 6.06262V13.9376C17.125 14.6835 16.8287 15.3989 16.3012 15.9264C15.7738 16.4538 15.0584 16.7501 14.3125 16.7501H3.0655C2.31958 16.7501 1.60421 16.4538 1.07676 15.9264C0.549317 15.3989 0.253001 14.6835 0.253001 13.9376V6.06262H0.250001V2.50012H0.258251C0.252693 2.43778 0.24994 2.37521 0.250001 2.31262ZM14.3125 4.37512H1.378V13.9376C1.378 14.3852 1.55579 14.8144 1.87226 15.1309C2.18873 15.4473 2.61795 15.6251 3.0655 15.6251H14.3125C14.7601 15.6251 15.1893 15.4473 15.5057 15.1309C15.8222 14.8144 16 14.3852 16 13.9376V6.06262C16 5.61507 15.8222 5.18585 15.5057 4.86938C15.1893 4.55291 14.7601 4.37512 14.3125 4.37512ZM13.375 2.31262C13.375 1.79512 12.955 1.37512 12.4375 1.37512H2.3125C2.06386 1.37512 1.8254 1.47389 1.64959 1.64971C1.47377 1.82552 1.375 2.06398 1.375 2.31262C1.375 2.56126 1.47377 2.79972 1.64959 2.97553C1.8254 3.15135 2.06386 3.25012 2.3125 3.25012H13.375V2.31262Z"
        fill="#353535" />
</svg>